<?xml version="1.0" encoding="utf-8"?>
<!-- Generator: Adobe Illustrator 17.0.0, SVG Export Plug-In . SVG Version: 6.00 Build 0)  -->
<!DOCTYPE svg PUBLIC "-//W3C//DTD SVG 1.1//EN" "http://www.w3.org/Graphics/SVG/1.1/DTD/svg11.dtd">
<svg version="1.1" id="Layer_1" xmlns="http://www.w3.org/2000/svg" xmlns:xlink="http://www.w3.org/1999/xlink" x="0px" y="0px"
	 width="198px" height="42px" viewBox="0 0 198 42" enable-background="new 0 0 198 42" xml:space="preserve">
<path fill="#575B5C" d="M123.578,31.67c0,0.389,0.324,0.712,0.712,0.712h0.583c0.356,0,0.583-0.259,0.648-0.615l0.194-0.971
	c0,0,1.684,1.943,4.727,1.943c3.821,0,6.702-3.594,6.702-7.868c0-4.371-2.59-7.771-7.059-7.771c-2.493,0-4.144,0.939-4.144,0.939
	V10.43c0-0.356-0.356-0.712-0.712-0.712h-0.971c-0.389,0-0.68,0.356-0.68,0.712V31.67z M125.942,28.108v-7.9
	c0,0,1.716-0.939,3.788-0.939c3.27,0,4.986,2.655,4.986,5.634c0,2.914-1.813,5.666-4.533,5.666
	C127.496,30.569,125.942,28.108,125.942,28.108z"/>
<path fill="#575B5C" d="M139.151,26.198c0,3.95,1.036,6.541,5.342,6.541c2.688,0,4.08-1.36,4.63-1.943l0.291,0.939
	c0.097,0.389,0.259,0.648,0.68,0.648h0.518c0.356,0,0.68-0.324,0.68-0.712V18.136c0-0.356-0.324-0.712-0.68-0.712h-1.004
	c-0.389,0-0.68,0.356-0.68,0.712V28.4c-0.68,0.777-2.008,2.169-4.242,2.169c-2.169,0-3.141-1.36-3.141-4.339v-8.095
	c0-0.356-0.324-0.712-0.712-0.712h-0.971c-0.421,0-0.712,0.356-0.712,0.712V26.198z"/>
<path fill="#575B5C" d="M153.915,31.67c0,0.389,0.324,0.712,0.712,0.712h0.971c0.356,0,0.712-0.324,0.712-0.712v-6.799l6.832,7.22
	c0.162,0.13,0.453,0.291,0.745,0.291h1.846c0.647,0,0.68-0.68,0.389-0.939l-7.415-7.382l6.897-5.731
	c0.259-0.194,0.291-0.907-0.356-0.907h-1.813c-0.291,0-0.583,0.162-0.907,0.453l-6.217,5.213V10.43c0-0.356-0.356-0.712-0.712-0.712
	h-0.971c-0.389,0-0.712,0.356-0.712,0.712V31.67z"/>
<path fill="#575B5C" d="M167.093,24.903c0,4.274,2.72,7.836,7.253,7.836c2.59,0,4.565-1.004,5.472-1.716
	c0.551-0.421,0.421-0.583,0.13-1.036l-0.389-0.55c-0.389-0.583-0.615-0.453-1.133-0.097c-0.842,0.55-2.072,1.23-4.047,1.23
	c-2.72,0-4.824-2.623-4.889-5.116h10.879c0.324,0,0.648-0.259,0.68-0.648c0.032-0.259,0.065-0.648,0.065-0.907
	c0-3.918-2.849-6.799-6.767-6.799C169.813,17.1,167.093,20.694,167.093,24.903z M169.521,23.543
	c0.291-2.331,2.299-4.274,4.824-4.274c2.558,0,4.306,2.072,4.371,4.274H169.521z"/>
<path fill="#575B5C" d="M184.382,19.496v9.098c0,2.331,0.583,4.145,3.432,4.145c2.007,0,3.562-0.745,4.209-1.198
	c0.389-0.259,0.453-0.486,0.259-0.971l-0.291-0.68c-0.162-0.356-0.356-0.648-0.939-0.291c-0.615,0.389-1.554,0.971-2.947,0.971
	c-0.842,0-1.327-0.583-1.327-2.137v-8.936h4.404c0.421,0,0.745-0.324,0.745-0.712v-0.648c0-0.421-0.324-0.712-0.745-0.712h-4.404
	v-4.209c0-0.389-0.291-0.745-0.68-0.712l-1.004,0.065c-0.356,0.032-0.712,0.324-0.712,0.712v4.144h-1.975
	c-0.453,0-0.745,0.291-0.745,0.712v0.648c0,0.389,0.291,0.712,0.745,0.712H184.382z"/>
<path fill="#575B5C" d="M196.006,13.57c1.004,0,1.781-0.81,1.781-1.748c0-1.036-0.777-1.813-1.781-1.813
	c-0.971,0-1.748,0.777-1.748,1.813C194.257,12.761,195.035,13.57,196.006,13.57z M194.873,31.67c0,0.389,0.324,0.712,0.712,0.712
	h0.971c0.356,0,0.712-0.324,0.712-0.712V18.136c0-0.356-0.356-0.712-0.712-0.712h-0.971c-0.388,0-0.712,0.356-0.712,0.712V31.67z"/>
<path fill="#F15B61" d="M176.554,36.803c0,1.35,1.088,2.35,2.37,2.35c0.806,0,1.389-0.311,1.806-0.932
	c0.078-0.117,0.019-0.223-0.078-0.32l-0.631-0.544c-0.058-0.078-0.175-0.058-0.253,0.039c-0.194,0.194-0.388,0.369-0.806,0.369
	c-0.515,0-0.932-0.418-0.932-0.961c0-0.505,0.437-0.961,0.952-0.961c0.282,0,0.505,0.155,0.689,0.32
	c0.087,0.078,0.204,0.068,0.253,0.019l0.631-0.612c0.107-0.087,0.146-0.214,0.058-0.32c-0.427-0.505-0.971-0.787-1.68-0.787
	C177.651,34.463,176.554,35.482,176.554,36.803z"/>
<path fill="#F15B61" d="M183.091,36.793c0,1.282,1.059,2.36,2.34,2.36c1.282,0,2.331-1.078,2.331-2.36
	c0-1.262-1.049-2.331-2.331-2.331C184.149,34.463,183.091,35.531,183.091,36.793z M184.489,36.793c0-0.515,0.418-0.952,0.942-0.952
	c0.515,0,0.932,0.437,0.932,0.952c0,0.524-0.418,0.971-0.932,0.971C184.907,37.765,184.489,37.318,184.489,36.793z"/>
<path fill="#F15B61" d="M190.531,38.833c0,0.116,0.087,0.214,0.214,0.214h1.049c0.107,0,0.214-0.097,0.214-0.214v-2.224
	c0-0.456,0.233-0.767,0.689-0.767c0.495,0,0.573,0.369,0.573,0.826v2.166c0,0.116,0.097,0.214,0.214,0.214h1.058
	c0.126,0,0.204-0.097,0.204-0.214V36.59c0-0.437,0.243-0.748,0.631-0.748c0.524,0,0.66,0.369,0.66,0.826v2.166
	c0,0.116,0.087,0.214,0.214,0.214h1.049c0.117,0,0.214-0.097,0.214-0.214v-2.098c0-1.272-0.456-2.272-1.835-2.272
	c-0.767,0-1.185,0.427-1.418,0.68c-0.408-0.447-0.709-0.68-1.33-0.68c-0.728,0-1.097,0.388-1.389,0.68l-0.185-0.456
	c-0.029-0.078-0.107-0.126-0.184-0.126h-0.427c-0.126,0-0.214,0.087-0.214,0.214V38.833z"/>
<path fill-rule="evenodd" clip-rule="evenodd" fill="#F15B61" d="M172.563,36.813h0.344c0.552,0,1,0.448,1,1v0.344
	c0,0.552-0.448,1-1,1h-0.344c-0.552,0-1-0.448-1-1v-0.344C171.563,37.26,172.01,36.813,172.563,36.813z"/>
<path fill="#F15B61" d="M46.993,24.565c0,4.274,2.914,7.868,6.702,7.868c2.817,0,4.727-1.943,4.727-1.943l0.194,0.971
	c0.129,0.356,0.324,0.615,0.648,0.615h0.583c0.389,0,0.745-0.324,0.745-0.712V10.124c0-0.356-0.356-0.712-0.745-0.712h-0.907
	c-0.389,0-0.712,0.356-0.712,0.712v7.609c0,0-1.684-0.939-4.145-0.939C49.584,16.794,46.993,20.194,46.993,24.565z M49.422,24.597
	c0-2.979,1.781-5.634,4.986-5.634c2.072,0,3.821,0.842,3.821,0.842v8.062c0,0-1.554,2.396-4.242,2.396
	C51.267,30.264,49.422,27.511,49.422,24.597z"/>
<path fill="#F15B61" d="M63.053,25.892c0,3.95,1.036,6.54,5.343,6.54c2.688,0,4.08-1.36,4.63-1.943l0.291,0.939
	c0.097,0.389,0.259,0.648,0.68,0.648h0.518c0.356,0,0.68-0.324,0.68-0.712V17.83c0-0.356-0.324-0.712-0.68-0.712h-1.004
	c-0.389,0-0.68,0.356-0.68,0.712v10.264c-0.68,0.777-2.007,2.169-4.242,2.169c-2.169,0-3.141-1.36-3.141-4.339V17.83
	c0-0.356-0.324-0.712-0.712-0.712h-0.971c-0.421,0-0.712,0.356-0.712,0.712V25.892z M72.378,13.265c0.939,0,1.684-0.745,1.684-1.651
	c0-0.939-0.745-1.684-1.684-1.684c-0.907,0-1.651,0.745-1.651,1.684C70.727,12.52,71.471,13.265,72.378,13.265z M66.129,13.265
	c0.939,0,1.684-0.745,1.684-1.651c0-0.939-0.745-1.684-1.684-1.684c-0.907,0-1.651,0.745-1.651,1.684
	C64.477,12.52,65.222,13.265,66.129,13.265z"/>
<path fill="#F15B61" d="M84.584,14.884c2.234,0,4.015-1.587,4.371-3.691c0.065-0.356-0.097-0.648-0.453-0.648h-0.745
	c-0.291,0-0.486,0.194-0.615,0.55c-0.356,1.133-1.36,2.072-2.558,2.072c-1.295,0-2.267-0.842-2.623-2.072
	c-0.097-0.291-0.259-0.55-0.615-0.55h-0.68c-0.389,0-0.518,0.291-0.453,0.648C80.504,13.297,82.317,14.884,84.584,14.884z
	 M79.306,24.565c0-2.914,1.846-5.569,4.824-5.569c2.428,0,3.95,1.813,3.95,1.813v8.192c0,0-1.716,1.23-3.788,1.23
	C81.443,30.231,79.306,27.803,79.306,24.565z M90.477,17.247c0-0.356-0.356-0.13-0.745-0.13h-0.453c-0.389,0-0.55,0.227-0.712,0.518
	l-0.227,0.68c0,0-1.781-1.522-4.468-1.522c-4.08,0-6.994,3.529-6.994,7.803c0,4.371,2.979,7.836,7.091,7.836
	c2.461,0,4.145-1.328,4.145-1.328v1.069c0,3.497-1.813,4.792-4.177,4.792c-1.651,0-4.491-0.094-5.548-0.135
	c-0.48-0.037-0.787,0.201-0.748,0.621l0.064,1.139c0.011,0.278,0.32,0.571,0.664,0.591c1.051,0.087,3.204-0.014,5.568-0.014
	c3.4,0,6.541-1.878,6.541-6.994V17.247z"/>
<path fill="#F15B61" d="M92.937,25.892c0,3.95,1.036,6.54,5.343,6.54c2.687,0,4.08-1.36,4.63-1.943l0.291,0.939
	c0.097,0.389,0.259,0.648,0.68,0.648h0.518c0.356,0,0.68-0.324,0.68-0.712V17.83c0-0.356-0.324-0.712-0.68-0.712h-1.004
	c-0.388,0-0.68,0.356-0.68,0.712v10.264c-0.68,0.777-2.007,2.169-4.242,2.169c-2.169,0-3.141-1.36-3.141-4.339V17.83
	c0-0.356-0.324-0.712-0.712-0.712h-0.971c-0.421,0-0.712,0.356-0.712,0.712V25.892z M102.262,13.265
	c0.939,0,1.684-0.745,1.684-1.651c0-0.939-0.745-1.684-1.684-1.684c-0.907,0-1.651,0.745-1.651,1.684
	C100.611,12.52,101.355,13.265,102.262,13.265z M96.013,13.265c0.939,0,1.684-0.745,1.684-1.651c0-0.939-0.745-1.684-1.684-1.684
	c-0.907,0-1.651,0.745-1.651,1.684C94.362,12.52,95.106,13.265,96.013,13.265z"/>
<path fill="#F15B61" d="M107.701,31.364c0,0.388,0.324,0.712,0.712,0.712h0.971c0.356,0,0.712-0.324,0.712-0.712V21.036
	c0,0,1.781-2.072,4.598-2.072c2.202,0,3.173,1.327,3.173,4.177v8.224c0,0.388,0.324,0.712,0.712,0.712h0.971
	c0.356,0,0.712-0.324,0.712-0.712v-7.9c0-3.853-1.068-6.67-5.407-6.67c-3.108,0-5.019,1.91-5.019,1.91l-0.324-1.133
	c-0.065-0.324-0.259-0.453-0.583-0.453h-0.518c-0.388,0-0.712,0.356-0.712,0.712V31.364z"/>
<path fill-rule="evenodd" clip-rule="evenodd" fill="#F15B61" d="M21.072-0.009c0,0,8.495,10.132,10.657,26.481
	c0.084,0.637-2.26,3.552-2.26,3.552s-1.409-15.687-8.396-24.866C21.065,5.148,21.072-0.009,21.072-0.009z"/>
<path fill-rule="evenodd" clip-rule="evenodd" fill="#F15B61" d="M21.062-0.009c0,0-8.487,10.132-10.647,26.481
	c-0.084,0.637,2.258,3.552,2.258,3.552s1.407-15.687,8.388-24.866C21.069,5.148,21.062-0.009,21.062-0.009z"/>
<path fill-rule="evenodd" clip-rule="evenodd" fill="#F15B61" d="M25.27,41.972c0,0,3.961-12.859,16.147-22.928
	c0.178-0.147-1.362-11.434-3.875-16.792c-0.09-0.191-19.76,14.646-20.668,39.721c-0.004,0.116,2.583-0.323,2.583-0.323
	S19.744,21.789,36.25,6.773c0.066-0.06,1.466,2.539,2.583,10.98c0.041,0.306-10.037,6.934-16.147,23.897
	C22.629,41.809,25.27,41.972,25.27,41.972z"/>
<path fill-rule="evenodd" clip-rule="evenodd" fill="#F15B61" d="M16.877,41.952c0,0-3.96-12.853-16.14-22.917
	C0.559,18.889,2.099,7.608,4.611,2.252C4.7,2.061,24.363,16.89,25.27,41.952c0.004,0.116-2.582-0.323-2.582-0.323
	S22.401,21.779,5.902,6.77c-0.065-0.06-1.465,2.538-2.582,10.974c-0.04,0.306,10.033,6.931,16.14,23.885
	C19.517,41.789,16.877,41.952,16.877,41.952z"/>
</svg>
